<svg width="36" height="35" viewBox="0 0 36 35" fill="none" xmlns="http://www.w3.org/2000/svg">
<path d="M22 11.6667C21.4333 11.6667 20.9587 11.48 20.576 11.1067C20.1933 10.7333 20.0013 10.2718 20 9.72222V1.94444C20 1.39352 20.192 0.932037 20.576 0.56C20.96 0.187963 21.4347 0.0012963 22 0H34C34.5667 0 35.042 0.186667 35.426 0.56C35.81 0.933333 36.0013 1.39481 36 1.94444V9.72222C36 10.2731 35.808 10.7353 35.424 11.1086C35.04 11.4819 34.5653 11.668 34 11.6667H22ZM2 19.4444C1.43333 19.4444 0.958667 19.2578 0.576 18.8844C0.193334 18.5111 0.00133333 18.0496 0 17.5V1.94444C0 1.39352 0.192 0.932037 0.576 0.56C0.96 0.187963 1.43467 0.0012963 2 0H14C14.5667 0 15.042 0.186667 15.426 0.56C15.81 0.933333 16.0013 1.39481 16 1.94444V17.5C16 18.0509 15.808 18.5131 15.424 18.8864C15.04 19.2597 14.5653 19.4457 14 19.4444H2ZM22 35C21.4333 35 20.9587 34.8133 20.576 34.44C20.1933 34.0667 20.0013 33.6052 20 33.0555V17.5C20 16.9491 20.192 16.4876 20.576 16.1156C20.96 15.7435 21.4347 15.5568 22 15.5556H34C34.5667 15.5556 35.042 15.7422 35.426 16.1156C35.81 16.4889 36.0013 16.9504 36 17.5V33.0555C36 33.6065 35.808 34.0686 35.424 34.4419C35.04 34.8153 34.5653 35.0013 34 35H22ZM2 35C1.43333 35 0.958667 34.8133 0.576 34.44C0.193334 34.0667 0.00133333 33.6052 0 33.0555V25.2778C0 24.7268 0.192 24.2654 0.576 23.8933C0.96 23.5213 1.43467 23.3346 2 23.3333H14C14.5667 23.3333 15.042 23.52 15.426 23.8933C15.81 24.2667 16.0013 24.7281 16 25.2778V33.0555C16 33.6065 15.808 34.0686 15.424 34.4419C15.04 34.8153 14.5653 35.0013 14 35H2Z" fill="white"/>
</svg>
