<svg width="40" height="36" viewBox="0 0 40 36" fill="none" xmlns="http://www.w3.org/2000/svg">
<path d="M23.5851 14.5148C23.2413 14.1711 22.7751 13.9781 22.289 13.9781C21.8028 13.9781 21.3366 14.1711 20.9928 14.5148L19.6966 15.8092C19.0051 16.4771 18.0789 16.8467 17.1175 16.8383C16.1561 16.83 15.2364 16.4443 14.5566 15.7645C13.8768 15.0847 13.4912 14.165 13.4828 13.2036C13.4745 12.2423 13.844 11.3161 14.512 10.6245L24.8336 0.299178C27.2773 -0.25664 29.834 -0.0278916 32.1403 0.952898C34.4465 1.93369 36.3848 3.61659 37.6796 5.76231C38.9743 7.90804 39.5597 10.4073 39.3524 12.9049C39.1451 15.4024 38.1556 17.771 36.5248 19.6738L32.6601 23.588L23.5851 14.5148ZM3.49179 3.49285C5.38833 1.59517 7.86976 0.393002 10.5345 0.0809156C13.1992 -0.231171 15.8912 0.365084 18.175 1.77318L11.9178 8.03218C10.5626 9.38468 9.79008 11.2136 9.76534 13.128C9.7406 15.0425 10.4656 16.8908 11.7854 18.2778C13.1052 19.6649 14.9151 20.4808 16.8285 20.5512C18.7418 20.6216 20.6068 19.9409 22.025 18.6545L22.289 18.4033L30.0678 26.1803L22.289 33.9592C21.6014 34.6466 20.6689 35.0327 19.6966 35.0327C18.7244 35.0327 17.7919 34.6466 17.1043 33.9592L3.48995 20.3448C1.25536 18.1101 0 15.0792 0 11.9188C0 8.75852 1.2572 5.72762 3.49179 3.49285Z" fill="black"/>
</svg>
